<svg width="477" height="421" viewBox="0 0 477 421" fill="none" xmlns="http://www.w3.org/2000/svg">
<path d="M422.897 153.78C463.093 208.523 409.135 276.496 339.866 327.359C270.597 378.221 174.96 368.964 134.764 314.222C101.727 269.231 179.281 221.191 188.906 186.498C198.48 151.991 203.019 126.253 237.56 100.89C306.829 50.0274 382.701 99.0381 422.897 153.78Z" fill="#C20242"/>
<path d="M270.873 312.76C235.973 324.431 156.182 339.395 96.7599 283.778C37.3382 228.16 36.0112 136.979 89.3653 101.055C128.425 74.7562 179.392 119.919 213.366 122.832C264.882 127.25 291.522 103.372 327.369 136.924C386.79 192.541 339.002 289.977 270.873 312.76Z" fill="#FF0056"/>
<path d="M85.88 200.04C76.28 200.04 69.8 194.76 69.8 184.12H74.36C74.36 191.4 78.12 195.8 85.88 195.8C93.56 195.8 97.16 190.68 97.16 183.64V149.72H101.8V183.96C101.8 193.16 96.04 200.04 85.88 200.04ZM128.809 200.04C117.369 200.04 110.169 192.84 110.169 181C110.169 169.24 118.089 161.88 128.569 161.88C139.289 161.88 146.249 168.52 146.249 180.68V180.76H114.729V181.08C114.729 190.04 119.689 195.96 128.809 195.96C135.369 195.96 140.329 192.76 141.529 185.8H146.009C145.049 194.44 138.649 200.04 128.809 200.04ZM114.889 178.2H141.609C140.889 171.48 136.729 165.96 128.569 165.96C121.289 165.96 115.849 170.76 114.889 178.2ZM191.153 200.04C179.713 200.04 172.513 192.84 172.513 181C172.513 169.16 180.353 161.88 191.073 161.88C200.513 161.88 206.513 167 208.033 176.04H203.633C201.873 169.48 198.193 165.96 190.993 165.96C182.673 165.96 177.073 171.88 177.073 181C177.073 189.96 182.033 195.96 191.153 195.96C198.513 195.96 202.433 192.36 203.873 185.8H208.273C206.993 194.52 201.233 200.04 191.153 200.04ZM233.66 200.04C223.26 200.04 214.7 192.84 214.7 181C214.7 169.24 223.26 161.88 233.66 161.88C244.06 161.88 252.62 169.24 252.62 181C252.62 192.84 244.14 200.04 233.66 200.04ZM233.66 195.96C241.74 195.96 247.98 189.96 247.98 181C247.98 172.04 241.74 165.96 233.66 165.96C225.5 165.96 219.26 172.04 219.26 181C219.26 189.96 225.5 195.96 233.66 195.96ZM277.159 195.96C284.599 195.96 290.039 190.52 290.039 181C290.039 171.4 284.519 166.04 277.079 166.04C269.159 166.04 263.479 171.64 263.479 180.92C263.479 190.12 269.079 195.96 277.159 195.96ZM289.639 175.08H289.879V146.36H294.519V199H289.879V186.76H289.639C288.999 195.56 283.239 200.04 275.799 200.04C266.119 200.04 258.919 193.32 258.919 180.92C258.919 168.52 266.999 161.88 276.039 161.88C283.799 161.88 288.999 166.04 289.639 175.08ZM320.996 200.04C309.556 200.04 302.356 192.84 302.356 181C302.356 169.24 310.276 161.88 320.756 161.88C331.476 161.88 338.436 168.52 338.436 180.68V180.76H306.916V181.08C306.916 190.04 311.876 195.96 320.996 195.96C327.556 195.96 332.516 192.76 333.716 185.8H338.196C337.236 194.44 330.836 200.04 320.996 200.04ZM307.076 178.2H333.796C333.076 171.48 328.916 165.96 320.756 165.96C313.476 165.96 308.036 170.76 307.076 178.2ZM344.868 207.72C348.468 205.8 351.348 203 351.908 200.28C349.828 200.2 348.308 198.84 348.308 196.36C348.308 193.96 349.828 192.36 352.388 192.36C355.028 192.36 356.548 194.2 356.548 197.32C356.548 202.28 353.348 207.08 346.548 210.68L344.868 207.72ZM130.908 273.72C123.627 273.72 119.627 270.2 119.627 263.88C119.627 263.24 119.627 262.68 119.707 261.96H127.947C127.547 264.92 128.507 266.68 130.987 266.68C132.907 266.68 134.107 265.56 134.987 262.68L147.228 219.48H156.908L144.908 261.72C142.428 270.6 138.268 273.72 130.908 273.72ZM154.668 214.36C151.468 214.36 148.988 211.8 148.988 208.68C148.988 205.48 151.468 202.92 154.668 202.92C157.788 202.92 160.268 205.48 160.268 208.68C160.268 211.8 157.788 214.36 154.668 214.36ZM172.333 258.04C163.533 258.04 158.813 252.92 158.813 243.64C158.813 231.32 167.453 218.52 181.453 218.52C189.453 218.52 194.173 222.84 194.173 228.84C194.173 234.12 189.933 238.36 178.653 238.36H168.973C168.733 239.8 168.572 241.24 168.572 242.76C168.572 249.16 171.373 251.48 176.093 251.48C180.332 251.48 185.053 249.24 188.973 244.68L190.253 245.8C186.093 254.04 178.893 258.04 172.333 258.04ZM169.533 236.12H177.932C182.973 236.12 185.453 233.88 185.453 230.36C185.453 227.56 183.693 225.72 180.253 225.72C175.533 225.72 171.373 230.12 169.533 236.12ZM227.102 258.04C218.942 258.04 213.582 253.32 213.582 243.48C213.582 230.28 221.902 218.6 235.662 218.6C244.062 218.6 248.702 222.84 248.702 229C248.702 230.84 248.382 232.52 247.662 234.12L239.022 234.92L238.862 234.68C239.662 233.4 240.142 231.8 240.142 230.12C240.142 227.16 237.982 225.4 234.942 225.4C228.142 225.4 223.422 233.72 223.422 242.44C223.422 248.84 225.982 251.48 231.022 251.48C234.942 251.48 239.662 249.8 243.662 244.76L244.862 245.8C240.462 254.12 234.142 258.04 227.102 258.04ZM266.191 258.04C257.231 258.04 251.551 252.6 251.551 243.64C251.551 229.32 260.671 218.52 274.271 218.52C283.391 218.52 288.671 224.12 288.671 233.64C288.671 247.24 279.551 258.04 266.191 258.04ZM267.311 251.56C273.951 251.56 279.071 242.36 279.071 234.04C279.071 228.12 277.391 225 272.831 225C265.631 225 261.151 234.6 261.151 242.92C261.151 249.16 263.231 251.56 267.311 251.56ZM307.597 258.04C298.637 258.04 292.957 252.6 292.957 243.64C292.957 229.32 302.077 218.52 315.677 218.52C324.797 218.52 330.077 224.12 330.077 233.64C330.077 247.24 320.957 258.04 307.597 258.04ZM308.717 251.56C315.357 251.56 320.477 242.36 320.477 234.04C320.477 228.12 318.797 225 314.237 225C307.037 225 302.557 234.6 302.557 242.92C302.557 249.16 304.637 251.56 308.717 251.56ZM327.563 272.76L343.163 219.48H352.843L349.403 231.24H349.803C352.443 223.32 356.923 218.52 363.163 218.52C369.403 218.52 373.563 223.32 373.563 232.12C373.563 245.56 365.243 258.04 354.283 258.04C348.043 258.04 345.323 254.68 345.323 246.84H344.763L337.163 272.76H327.563ZM345.403 244.76C346.603 249.4 348.763 251.56 351.963 251.56C358.603 251.56 363.723 241.88 363.723 232.92C363.723 227.4 361.963 224.84 358.843 224.84C353.803 224.84 349.643 229.8 347.083 239L345.403 244.76ZM382.926 258.04C379.486 258.04 376.846 255.32 376.846 251.96C376.846 248.68 379.486 246.04 382.926 246.04C386.286 246.04 388.846 248.68 388.846 251.96C388.846 255.32 386.286 258.04 382.926 258.04Z" fill="white"/>
</svg>
