<svg width="373" height="282" viewBox="0 0 373 282" fill="none" xmlns="http://www.w3.org/2000/svg">
<path d="M355.791 45.8949C395.987 100.637 358.426 196.891 289.157 247.754C219.888 298.616 124.251 289.359 84.055 234.617C51.0188 189.626 144.666 146.088 154.292 111.395C163.866 76.8872 167.75 53.2576 202.291 27.8947C259.792 -14.3269 315.595 -8.8473 355.791 45.8949Z" fill="#C20242"/>
<path d="M220.165 233.155C185.264 244.826 105.473 259.79 46.0515 204.172C-13.3702 148.555 -14.6972 57.3734 38.6569 21.4498C77.7165 -4.84914 128.684 40.3135 162.658 43.227C214.174 47.6448 240.813 23.7666 276.66 57.3184C336.082 112.936 288.294 210.372 220.165 233.155Z" fill="#FF0056"/>
<path d="M35.172 120.435C25.572 120.435 19.092 115.155 19.092 104.515H23.652C23.652 111.795 27.412 116.195 35.172 116.195C42.852 116.195 46.452 111.075 46.452 104.035V70.1145H51.092V104.355C51.092 113.555 45.332 120.435 35.172 120.435ZM78.1007 120.435C66.6607 120.435 59.4607 113.235 59.4607 101.395C59.4607 89.6345 67.3807 82.2745 77.8607 82.2745C88.5807 82.2745 95.5407 88.9145 95.5407 101.075V101.155H64.0207V101.475C64.0207 110.435 68.9807 116.355 78.1007 116.355C84.6607 116.355 89.6207 113.155 90.8207 106.195H95.3007C94.3407 114.835 87.9407 120.435 78.1007 120.435ZM64.1807 98.5945H90.9007C90.1807 91.8745 86.0207 86.3545 77.8607 86.3545C70.5807 86.3545 65.1407 91.1545 64.1807 98.5945ZM140.444 120.435C129.004 120.435 121.804 113.235 121.804 101.395C121.804 89.5545 129.644 82.2745 140.364 82.2745C149.804 82.2745 155.804 87.3945 157.324 96.4345H152.924C151.164 89.8745 147.484 86.3545 140.284 86.3545C131.964 86.3545 126.364 92.2745 126.364 101.395C126.364 110.355 131.324 116.355 140.444 116.355C147.804 116.355 151.724 112.755 153.164 106.195H157.564C156.284 114.915 150.524 120.435 140.444 120.435ZM182.952 120.435C172.552 120.435 163.992 113.235 163.992 101.395C163.992 89.6345 172.552 82.2745 182.952 82.2745C193.352 82.2745 201.912 89.6345 201.912 101.395C201.912 113.235 193.432 120.435 182.952 120.435ZM182.952 116.355C191.032 116.355 197.272 110.355 197.272 101.395C197.272 92.4345 191.032 86.3545 182.952 86.3545C174.792 86.3545 168.552 92.4345 168.552 101.395C168.552 110.355 174.792 116.355 182.952 116.355ZM226.451 116.355C233.891 116.355 239.331 110.915 239.331 101.395C239.331 91.7945 233.811 86.4345 226.371 86.4345C218.451 86.4345 212.771 92.0345 212.771 101.315C212.771 110.515 218.371 116.355 226.451 116.355ZM238.931 95.4745H239.171V66.7545H243.811V119.395H239.171V107.155H238.931C238.291 115.955 232.531 120.435 225.091 120.435C215.411 120.435 208.211 113.715 208.211 101.315C208.211 88.9145 216.291 82.2745 225.331 82.2745C233.091 82.2745 238.291 86.4345 238.931 95.4745ZM270.288 120.435C258.848 120.435 251.648 113.235 251.648 101.395C251.648 89.6345 259.568 82.2745 270.048 82.2745C280.768 82.2745 287.728 88.9145 287.728 101.075V101.155H256.208V101.475C256.208 110.435 261.168 116.355 270.288 116.355C276.848 116.355 281.808 113.155 283.008 106.195H287.488C286.528 114.835 280.128 120.435 270.288 120.435ZM256.368 98.5945H283.088C282.368 91.8745 278.208 86.3545 270.048 86.3545C262.768 86.3545 257.328 91.1545 256.368 98.5945ZM294.159 128.115C297.759 126.195 300.639 123.395 301.199 120.675C299.119 120.595 297.599 119.235 297.599 116.755C297.599 114.355 299.119 112.755 301.679 112.755C304.319 112.755 305.839 114.595 305.839 117.715C305.839 122.675 302.639 127.475 295.839 131.075L294.159 128.115ZM80.1995 194.115C72.9195 194.115 68.9195 190.595 68.9195 184.275C68.9195 183.635 68.9195 183.075 68.9995 182.355H77.2395C76.8395 185.315 77.7995 187.075 80.2795 187.075C82.1995 187.075 83.3995 185.955 84.2795 183.075L96.5195 139.875H106.199L94.1995 182.115C91.7195 190.995 87.5595 194.115 80.1995 194.115ZM103.959 134.755C100.759 134.755 98.2795 132.195 98.2795 129.075C98.2795 125.875 100.759 123.315 103.959 123.315C107.079 123.315 109.559 125.875 109.559 129.075C109.559 132.195 107.079 134.755 103.959 134.755ZM121.624 178.435C112.824 178.435 108.104 173.315 108.104 164.035C108.104 151.715 116.744 138.915 130.744 138.915C138.744 138.915 143.464 143.235 143.464 149.235C143.464 154.515 139.224 158.755 127.944 158.755H118.264C118.024 160.195 117.864 161.635 117.864 163.155C117.864 169.555 120.664 171.875 125.384 171.875C129.624 171.875 134.344 169.635 138.264 165.075L139.544 166.195C135.384 174.435 128.184 178.435 121.624 178.435ZM118.824 156.515H127.224C132.264 156.515 134.744 154.275 134.744 150.755C134.744 147.955 132.984 146.115 129.544 146.115C124.824 146.115 120.664 150.515 118.824 156.515ZM176.394 178.435C168.234 178.435 162.874 173.715 162.874 163.875C162.874 150.675 171.194 138.995 184.954 138.995C193.354 138.995 197.994 143.235 197.994 149.395C197.994 151.235 197.674 152.915 196.954 154.515L188.314 155.315L188.154 155.075C188.954 153.795 189.434 152.195 189.434 150.515C189.434 147.555 187.274 145.795 184.234 145.795C177.434 145.795 172.714 154.115 172.714 162.835C172.714 169.235 175.274 171.875 180.314 171.875C184.234 171.875 188.954 170.195 192.954 165.155L194.154 166.195C189.754 174.515 183.434 178.435 176.394 178.435ZM215.483 178.435C206.523 178.435 200.843 172.995 200.843 164.035C200.843 149.715 209.963 138.915 223.563 138.915C232.683 138.915 237.963 144.515 237.963 154.035C237.963 167.635 228.843 178.435 215.483 178.435ZM216.603 171.955C223.243 171.955 228.363 162.755 228.363 154.435C228.363 148.515 226.683 145.395 222.123 145.395C214.923 145.395 210.443 154.995 210.443 163.315C210.443 169.555 212.523 171.955 216.603 171.955ZM256.889 178.435C247.929 178.435 242.249 172.995 242.249 164.035C242.249 149.715 251.369 138.915 264.969 138.915C274.089 138.915 279.369 144.515 279.369 154.035C279.369 167.635 270.249 178.435 256.889 178.435ZM258.009 171.955C264.649 171.955 269.769 162.755 269.769 154.435C269.769 148.515 268.089 145.395 263.529 145.395C256.329 145.395 251.849 154.995 251.849 163.315C251.849 169.555 253.929 171.955 258.009 171.955ZM276.855 193.155L292.455 139.875H302.135L298.695 151.635H299.095C301.735 143.715 306.215 138.915 312.455 138.915C318.695 138.915 322.855 143.715 322.855 152.515C322.855 165.955 314.535 178.435 303.575 178.435C297.335 178.435 294.615 175.075 294.615 167.235H294.055L286.455 193.155H276.855ZM294.695 165.155C295.895 169.795 298.055 171.955 301.255 171.955C307.895 171.955 313.015 162.275 313.015 153.315C313.015 147.795 311.255 145.235 308.135 145.235C303.095 145.235 298.935 150.195 296.375 159.395L294.695 165.155ZM332.218 178.435C328.778 178.435 326.138 175.715 326.138 172.355C326.138 169.075 328.778 166.435 332.218 166.435C335.578 166.435 338.138 169.075 338.138 172.355C338.138 175.715 335.578 178.435 332.218 178.435Z" fill="white"/>
</svg>
